<?xml version="1.0" encoding="UTF-8"?>
<!-- Generator: Adobe Illustrator 23.0.2, SVG Export Plug-In . SVG Version: 6.00 Build 0)  -->
<svg enable-background="new 0 0 2000 478" version="1.1" viewBox="0 0 2e3 478" xml:space="preserve" xmlns="http://www.w3.org/2000/svg">
<style type="text/css">
	.st0{display:none;}
	.st1{display:inline;fill:#B9B9BB;}
	.st2{display:inline;}
	.st3{fill:#6C6D71;}
	.st4{display:inline;fill:#6C6D71;}
	.st5{fill:#0E0E0E;}
</style>
<g class="st0">
	<path class="st1" d="m2e3 338.82v91.29l-6.44-8.97-7.18-9.98 0.28 13.74h-1986.7v-146.01l11.38-7.66 288.51-194.02c5.87-3.03 12.5-4.31 19.08-3.66l66.53 6.51 56.06-13.12 127.04 52.48 213-59.96 93.42 50.6 160.67 46.85 136.39-18.74 64.09-29.21c11.71-5.34 24.92-6.43 37.34-3.06l77.93 21.03 173.77 24.37 149.46 20.61 108.37-18.73 73.98-26.25c24.34-8.64 51.4 0.83 65.11 22.77l54.59 87.39 18.99 82.87 4.29 18.86z"/>


	<g class="st2">
		<rect class="st3" x="1277.9" y="153.15" width="103.7" height="226.77"/>
		<rect class="st3" x="1302.9" y="143.99" width="70.39" height="29.99"/>
	
	
		<rect class="st3" x="1897.1" y="303.55" width="37.64" height="64.19"/>
		<rect class="st3" x="1906" y="322.92" width="56.22" height="44.82"/>
		<rect class="st3" x="1941.3" y="317.76" width="16.71" height="19.05"/>
		<rect class="st3" x="1874.9" y="321.67" width="36.86" height="46.07"/>
	
	
		<rect class="st3" x="1951.6" y="340.56" width="28.74" height="23.53"/>
		<rect class="st3" x="1969.3" y="333.48" width="7.5" height="14.58"/>
	</g>
	<rect class="st4" x="866.22" y="302.87" width="57.47" height="119.95"/>
	<rect class="st4" x="1013" y="293.29" width="24.99" height="119.95"/>
	<path class="st4" d="m1001.9 131.72v311.48h-87.06v-342.67c0-8.89 2.57-17.18 7-24.17 1.12-1.78 2.35-3.48 3.72-5.07 3.4-4.02 7.49-7.46 12.1-10.09 1.62-0.93 3.31-1.78 5.07-2.49 5.36-2.25 11.24-3.48 17.41-3.48h3.72v25.41h0.15c8.79 2.35 16.67 8.67 22.91 14.93 9.26 9.24 14.98 22.03 14.98 36.15z"/>
	<g class="st2">
		<path class="st3" d="m1017.1 131.72v311.48h-15.21v-311.48c0-1-0.03-1.98-0.1-2.96h15.21c0.07 0.98 0.1 1.96 0.1 2.96z"/>
		<path class="st3" d="m1017 128.76h-15.21c-0.73-12.95-6.27-24.61-14.88-33.2-6.24-6.25-14.12-12.58-22.91-14.93 0.66-0.03 1.3-0.05 1.96-0.05 5.14 0 10.11 0.76 14.79 2.18 8.17 2.45 15.49 6.91 21.37 12.8 8.61 8.59 14.16 20.25 14.88 33.2z"/>
		<path class="st3" d="m980.73 55.22v27.54c-4.68-1.42-9.65-2.18-14.79-2.18-0.66 0-1.3 0.02-1.96 0.05-0.05-0.02-0.1-0.03-0.15-0.05v-25.36h16.9z"/>
	</g>
	<path class="st4" d="m1017.1 131.72v8.88h-15.21v-8.88c0-1-0.03-1.98-0.1-2.96h15.21c0.07 0.98 0.1 1.96 0.1 2.96z"/>
	<polygon class="st4" points="171.96 296.27 171.96 417.41 103.23 417.41 103.23 294.33 140.72 294.33 140.72 286.94 161.33 286.94 161.33 296.27"/>
	<g class="st2">
		<rect class="st3" x="1391.6" y="294.52" width="130.53" height="177.5"/>
		<polyline class="st3" points="1406.6 295.88 1413 287.05 1424.1 287.05 1501.9 287.05 1508.4 295.88"/>
	
	
		<rect class="st3" x="1706.6" y="356.02" width="77.64" height="95.29"/>
		<polyline class="st3" points="1700.3 356.02 1705 351.28 1713.1 351.28 1770 351.28 1774.8 356.02"/>
	
	
		<rect class="st3" x="1643.3" y="280.05" width="99.33" height="173.67"/>
		<polygon class="st3" points="1742.6 280.05 1643.3 280.05 1686.7 255.9 1700 255.9"/>
	
	
		<rect class="st3" x="1253.3" y="337.8" width="152.43" height="132.09"/>
		<rect class="st3" x="1278.3" y="324.95" width="103.5" height="29.48"/>
	</g>
	<rect class="st4" x="168.2" y="240.4" width="85.38" height="218.24"/>
	<rect class="st4" x="44.51" y="164.81" width="85.38" height="218.24"/>
	<rect class="st4" x="655.69" y="223.03" width="31.65" height="82.65"/>
	<rect class="st4" x="210.06" y="198.87" width="61.64" height="189.8"/>
	<g class="st2">
		<rect class="st3" x="-1" y="271.23" width="82.78" height="194.08"/>
		<rect class="st3" x="23.24" y="262.68" width="36.14" height="17.91"/>
		<rect class="st3" x="-.99" y="262.68" width="14.53" height="17.91"/>
	</g>
	<polygon class="st4" points="1529.7 325.13 1529.7 411.02 1634.1 411.02 1634.1 311.59 1619.7 311.59 1617 314.36 1537.4 314.36 1537.4 318.26 1539.4 318.26 1539.4 325.13"/>
	<g class="st2">
		
			
				
					<rect class="st3" x="1157.6" y="247.22" width="84.02" height="20.62"/>
					<rect class="st3" x="1157.6" y="266.9" width="101.52" height="191.74"/>
				
			
			<rect class="st3" x="1228.4" y="266.85" width="37.9" height="5.83"/>
			<rect class="st3" x="1228.4" y="294.34" width="37.9" height="5.83"/>
			<rect class="st3" x="1228.4" y="321.82" width="37.9" height="5.83"/>
			<rect class="st3" x="1228.4" y="349.31" width="37.9" height="5.83"/>
			<rect class="st3" x="1228.4" y="376.8" width="37.9" height="5.83"/>
			<rect class="st3" x="1228.4" y="404.29" width="37.9" height="5.83"/>
			<rect class="st3" x="1228.4" y="431.77" width="37.9" height="5.83"/>
		
	
	
		
			
				
					<rect class="st3" x="1912.2" y="331.79" width="84.02" height="20.62"/>
					<rect class="st3" x="1894.6" y="351.46" width="101.52" height="129.66"/>
				
			
			<rect class="st3" x="1887.5" y="351.42" width="37.9" height="5.83"/>
			<rect class="st3" x="1901" y="331.77" width="37.9" height="5.83"/>
			<rect class="st3" x="1887.5" y="365.16" width="37.9" height="5.83"/>
			<rect class="st3" x="1887.5" y="378.91" width="37.9" height="5.83"/>
			<rect class="st3" x="1887.5" y="392.65" width="37.9" height="5.83"/>
			<rect class="st3" x="1887.5" y="406.39" width="37.9" height="5.83"/>
			<rect class="st3" x="1887.5" y="420.14" width="37.9" height="5.83"/>
			<rect class="st3" x="1887.5" y="433.88" width="37.9" height="5.83"/>
			<rect class="st3" x="1887.5" y="447.62" width="37.9" height="5.83"/>
			<rect class="st3" x="1887.5" y="461.37" width="37.9" height="5.83"/>
			<rect class="st3" x="1887.5" y="475.11" width="37.9" height="5.83"/>
		
	
	
		
			<polygon class="st3" points="1122.8 251.35 1122.8 418.24 1034.7 418.24 1034.7 241.43 1108.4 241.43 1108.4 251.35"/>
		
	</g>
	<polygon class="st4" points="779.18 300.73 779.18 443.64 658.19 443.64 658.19 316.66 669.53 316.66 669.53 306.49 667.12 306.49 667.12 300.73"/>
	<rect class="st4" x="262.54" y="153.46" width="149" height="273.21"/>
	<g class="st2">
		<rect class="st3" x="1782.1" y="324.32" width="80.59" height="142.12"/>
		<rect class="st3" x="1790.2" y="320.25" width="21.55" height="11.24"/>
		<rect class="st3" x="1824.1" y="320.25" width="13.02" height="11.24"/>
	</g>
	<rect class="st4" x="758.77" y="17.79" width="122.86" height="397.53"/>
	<rect class="st4" x="1081.8" y="49.65" width="122.86" height="397.53"/>
	<g class="st2">
		<rect class="st3" x="1878.9" y="162.52" width="122.1" height="257.18"/>
		<rect class="st3" x="1885.7" y="149.13" width="61.26" height="20.26"/>
	</g>
	<rect class="st4" x="1769.4" y="236.24" width="31.24" height="22.83"/>
	<rect class="st4" x="1756.4" y="246.3" width="67.89" height="142.1"/>
	<rect class="st4" x="1481.6" y="176.26" width="67.89" height="160.91"/>
	<g class="st2">
		
			
				<rect class="st3" x="428.04" y="127.01" width="128.37" height="260.93"/>
			
		
		
			
				<rect class="st3" x="465.23" y="109.61" width="53.99" height="26.39"/>
			
		
		
			
				<rect class="st3" x="489.82" y="12.59" width="4.8" height="105.27"/>
			
		
	</g>
	<rect class="st4" x="547.16" y="259.97" width="104.45" height="144.27"/>
	<rect class="st4" x="575.52" y="230.61" width="57.47" height="44.98"/>
	<rect class="st4" x="585.52" y="223.74" width="32.49" height="11.87"/>
	<rect class="st4" x="386.65" y="248.73" width="80.8" height="149.93"/>
	<rect class="st4" x="623.21" y="282.88" width="80.8" height="136.24"/>
	<rect class="st4" x="695.67" y="202.55" width="64.14" height="119.02"/>
	<rect class="st4" x="709" y="194.59" width="37.48" height="13.33"/>
	<rect class="st4" x="1555.3" y="274.97" width="49.56" height="53.31"/>
	<rect class="st4" x="1621.1" y="334.94" width="25.41" height="19.91"/>
	<rect class="st4" x="1413.4" y="275.8" width="30.05" height="16.66"/>
</g>

	
		<rect class="st5" x="1434.9" y="319.6" width="98.24" height="129.87"/>
		<rect class="st5" x="1447.7" y="303.76" width="30.92" height="31.69"/>
		<rect class="st5" x="1484.9" y="303.76" width="19.21" height="31.69"/>
	
	
		<rect class="st5" x="1590.7" y="350.25" width="98.24" height="65.28"/>
		<rect class="st5" x="1675.1" y="339.42" width="13.8" height="18.79"/>
		<rect class="st5" x="1590.7" y="339.42" width="13.8" height="18.79"/>
	
	<rect class="st5" y="411.16" width="2001" height="69.97"/>
	
		<rect class="st5" x="177.57" y="358.37" width="98.24" height="65.28"/>
		<rect class="st5" x="190.38" y="350.4" width="30.92" height="15.93"/>
		<rect class="st5" x="249.26" y="352.17" width="14.94" height="15.93"/>
	
	
		
			<polyline class="st5" points="152.59 424.13 165.57 424.13 165.57 340.57 166.19 336.97 153.21 336.97 139.46 336.97 120.39 336.97"/>
			<polyline class="st5" points="120.39 336.97 0 336.97 0 424.13 152.59 424.13 152.59 340.57 153.21 336.97 139.46 336.97 120.39 336.97"/>
		
		<rect class="st5" x="21.21" y="327.03" width="69.84" height="29.99"/>
	
	
		<polyline class="st5" points="1397.5 467.86 1410.5 467.86 1410.5 384.3 1411.1 380.7 1398.1 380.7 1384.3 380.7 1365.2 380.7"/>
		<polyline class="st5" points="1365.2 380.7 1244.6 380.7 1244.6 467.86 1397.5 467.86 1397.5 384.3 1398.1 380.7 1384.3 380.7 1365.2 380.7"/>
	
	
		<polygon class="st5" points="1805 423.38 1730.1 423.38 1730.1 391.86 1776.7 391.86"/>
		<polygon class="st5" points="1659.2 423.38 1734.1 423.38 1734.1 391.86 1687.4 391.86"/>
	
	
		<polygon class="st5" points="1624.2 427.54 1549.4 427.54 1549.4 396.02 1596 396.02"/>
		<polygon class="st5" points="1478.4 427.54 1553.3 427.54 1553.3 396.02 1506.7 396.02"/>
	
	
		<rect class="st5" x="802.5" y="335.15" width="109.12" height="91.83"/>
	
	
		<polygon class="st5" points="930.83 384.76 930.83 361.03 1006.7 361.03 1006.7 340.25 1120.9 340.25 1227.6 340.25 1227.6 440.21 930.83 440.21"/>
	
	
		<polyline class="st5" points="1801.8 389.66 1801.8 375.33 1708.3 375.33 1708.3 463.63 1801.8 463.63 1801.8 463.63 1826.4 463.63 1826.4 403.87 1814 403.87"/>
		<polyline class="st5" points="1814 403.87 1814 389.66 1801.8 389.66"/>
	
	<rect class="st5" x="1089" y="331.82" width="95.58" height="16.24"/>
	<rect class="st5" x="282.11" y="272.89" width="97.77" height="183.67"/>
	<rect class="st5" x="1834.1" y="354.49" width="62.99" height="118.34"/>
	
		<rect class="st5" x="1939.6" y="319.94" width="61.36" height="113.53"/>
		<polygon class="st5" points="1995.4 331.07 1947.1 331.07 1952.8 315 1991.3 315"/>
	
	
		<polygon class="st5" points="592.59 333.27 603.33 345.35 387.06 345.35 397.79 333.27"/>
		<rect class="st5" x="378.73" y="344.31" width="269.57" height="77.47"/>
	
	
		<rect class="st5" x="689.38" y="359.78" width="105.01" height="111.4"/>
		<rect class="st5" x="689.52" y="352.59" width="73.26" height="27.18"/>
		<rect class="st5" x="702.17" y="343.84" width="47.96" height="20.31"/>
	
	
		<rect class="st5" x="636.95" y="374.09" width="62.89" height="89.13"/>
	


</svg>
