<?xml version="1.0" encoding="UTF-8"?>
<!-- Generator: Adobe Illustrator 23.0.2, SVG Export Plug-In . SVG Version: 6.00 Build 0)  -->
<svg enable-background="new 0 0 2000 478" version="1.1" viewBox="0 0 2e3 478" xml:space="preserve" xmlns="http://www.w3.org/2000/svg">
<style type="text/css">
	.st0{display:none;}
	.st1{display:inline;fill:#B9B9BB;}
	.st2{fill:#6C6D71;}
	.st3{display:inline;}
	.st4{fill:#0E0E0E;}
	.st5{display:inline;fill:#0E0E0E;}
</style>
<g class="st0">
	<path class="st1" d="m2e3 338.82v91.29l-6.44-8.97-7.18-9.98 0.28 13.74h-1986.7v-146.01l11.38-7.66 288.51-194.02c5.87-3.03 12.5-4.31 19.08-3.66l66.53 6.51 56.06-13.12 127.04 52.48 213-59.96 93.42 50.6 160.67 46.85 136.39-18.74 64.09-29.21c11.71-5.34 24.92-6.43 37.34-3.06l77.93 21.03 173.77 24.37 149.46 20.61 108.37-18.73 73.98-26.25c24.34-8.64 51.4 0.83 65.11 22.77l54.59 87.39 18.99 82.87 4.29 18.86z"/>
	<rect class="st1" x="-34" y="303" width="2060" height="175"/>
</g>

	<path class="st2" d="m2001 162.52h-54.02v-13.39h-61.26v13.39h-6.83v159.15h-3.96v12.33h-12.29v-9.68h-25.51v-4.06h-12.8v-73.96h-23.74v-10.06h-31.24v10.06h-12.91v87.7h-13.81v-53.95l-42.59-24.15h-13.33l-43.41 24.15v53.95h-9.21v-22.41h-14.37l-2.76 2.76h-12.12v-39.39h-49.56v39.39h-5.83v-138.09h-67.89v110.78h-38.08v-11.24h-30.05v11.25h-0.4l-5.48 7.47h-15.95v39.48h-9.79v-9.05h-0.21v-171.8h-8.33v-9.16h-70.39v9.16h-24.99v180.85h-18.84v-6.35h7.18v-5.83h-7.18v-21.66h7.18v-5.83h-7.18v-21.66h7.18v-5.83h-24.68v-19.63h-36.96v-197.56h-122.86v191.78h-47.06v51.86h-17.62v-161.57c0-1-0.03-1.98-0.1-2.96-0.73-12.95-6.27-24.61-14.88-33.2-5.88-5.88-13.2-10.35-21.37-12.8v-27.54h-20.63c-6.17 0-12.05 1.23-17.41 3.48-1.76 0.71-3.45 1.56-5.07 2.49-4.62 2.64-8.71 6.07-12.1 10.09-1.37 1.59-2.6 3.3-3.72 5.07-4.43 7-7 15.28-7 24.17v202.34h-33.16v-285.07h-122.84v184.76h-12.29v-7.96h-37.48v7.96h-13.33v80.33h-8.33v-59.86h-31.65v59.86h-4.09v-22.91h-18.61v-29.35h-14.99v-6.87h-32.49v6.87h-10v29.35h-19.11v-132.96h-37.19v-17.4h-24.59v-97.02h-4.8v97.02h-24.59v17.4h-37.19v121.72h-16.51v-95.27h-149v45.41h-52.48v41.53h-41.85v55.87h-6.87v-9.33h-20.61v7.39h-10.83v-129.52h-85.38v97.87h-21.27v8.54h-9.7v-8.54h-14.53v8.54h-0.01v194.08h1v12.7h2e3v-58.3h1v-257.18z"/>

<g class="st0">
	<g class="st3">
		<rect class="st4" x="1434.9" y="319.6" width="98.24" height="129.87"/>
		<rect class="st4" x="1447.7" y="303.76" width="30.92" height="31.69"/>
		<rect class="st4" x="1484.9" y="303.76" width="19.21" height="31.69"/>
	
	
		<rect class="st4" x="1590.7" y="350.25" width="98.24" height="65.28"/>
		<rect class="st4" x="1675.1" y="339.42" width="13.8" height="18.79"/>
		<rect class="st4" x="1590.7" y="339.42" width="13.8" height="18.79"/>
	</g>
	<rect class="st5" y="411.16" width="2001" height="69.97"/>
	<g class="st3">
		<rect class="st4" x="177.57" y="358.37" width="98.24" height="65.28"/>
		<rect class="st4" x="190.38" y="350.4" width="30.92" height="15.93"/>
		<rect class="st4" x="249.26" y="352.17" width="14.94" height="15.93"/>
	
	
		
			<polyline class="st4" points="152.59 424.13 165.57 424.13 165.57 340.57 166.19 336.97 153.21 336.97 139.46 336.97 120.39 336.97"/>
			<polyline class="st4" points="120.39 336.97 0 336.97 0 424.13 152.59 424.13 152.59 340.57 153.21 336.97 139.46 336.97 120.39 336.97"/>
		
		<rect class="st4" x="21.21" y="327.03" width="69.84" height="29.99"/>
	
	
		<polyline class="st4" points="1397.5 467.86 1410.5 467.86 1410.5 384.3 1411.1 380.7 1398.1 380.7 1384.3 380.7 1365.2 380.7"/>
		<polyline class="st4" points="1365.2 380.7 1244.6 380.7 1244.6 467.86 1397.5 467.86 1397.5 384.3 1398.1 380.7 1384.3 380.7 1365.2 380.7"/>
	
	
		<polygon class="st4" points="1805 423.38 1730.1 423.38 1730.1 391.86 1776.7 391.86"/>
		<polygon class="st4" points="1659.2 423.38 1734.1 423.38 1734.1 391.86 1687.4 391.86"/>
	
	
		<polygon class="st4" points="1624.2 427.54 1549.4 427.54 1549.4 396.02 1596 396.02"/>
		<polygon class="st4" points="1478.4 427.54 1553.3 427.54 1553.3 396.02 1506.7 396.02"/>
	
	
		<rect class="st4" x="802.5" y="335.15" width="109.12" height="91.83"/>
	
	
		<polygon class="st4" points="930.83 384.76 930.83 361.03 1006.7 361.03 1006.7 340.25 1120.9 340.25 1227.6 340.25 1227.6 440.21 930.83 440.21"/>
	
	
		<polyline class="st4" points="1801.8 389.66 1801.8 375.33 1708.3 375.33 1708.3 463.63 1801.8 463.63 1801.8 463.63 1826.4 463.63 1826.4 403.87 1814 403.87"/>
		<polyline class="st4" points="1814 403.87 1814 389.66 1801.8 389.66"/>
	</g>
	<rect class="st5" x="1089" y="331.82" width="95.58" height="16.24"/>
	<rect class="st5" x="282.11" y="272.89" width="97.77" height="183.67"/>
	<rect class="st5" x="1834.1" y="354.49" width="62.99" height="118.34"/>
	<g class="st3">
		<rect class="st4" x="1939.6" y="319.94" width="61.36" height="113.53"/>
		<polygon class="st4" points="1995.4 331.07 1947.1 331.07 1952.8 315 1991.3 315"/>
	
	
		<polygon class="st4" points="592.59 333.27 603.33 345.35 387.06 345.35 397.79 333.27"/>
		<rect class="st4" x="378.73" y="344.31" width="269.57" height="77.47"/>
	
	
		<rect class="st4" x="689.38" y="359.78" width="105.01" height="111.4"/>
		<rect class="st4" x="689.52" y="352.59" width="73.26" height="27.18"/>
		<rect class="st4" x="702.17" y="343.84" width="47.96" height="20.31"/>
	
	
		<rect class="st4" x="636.95" y="374.09" width="62.89" height="89.13"/>
	</g>
</g>

</svg>
