<?xml version="1.0" encoding="UTF-8" standalone="no"?>
<!-- Created with Inkscape (http://www.inkscape.org/) -->

<svg
   version="1.1"
   id="svg2"
   width="230.49237"
   height="57.565285"
   viewBox="0 0 230.49237 57.565285"
   sodipodi:docname="397-3970569_vector-skyline-denver-colorado-skyline-vector.jpeg.svg"
   inkscape:version="1.1.1 (3bf5ae0d25, 2021-09-20)"
   xmlns:inkscape="http://www.inkscape.org/namespaces/inkscape"
   xmlns:sodipodi="http://sodipodi.sourceforge.net/DTD/sodipodi-0.dtd"
   xmlns="http://www.w3.org/2000/svg"
   xmlns:svg="http://www.w3.org/2000/svg">
  <defs
     id="defs6" />
  <sodipodi:namedview
     id="namedview4"
     pagecolor="#ffffff"
     bordercolor="#666666"
     borderopacity="1.0"
     inkscape:pageshadow="2"
     inkscape:pageopacity="0.0"
     inkscape:pagecheckerboard="0"
     showgrid="false"
     inkscape:zoom="3.1070661"
     inkscape:cx="97.358728"
     inkscape:cy="20.59821"
     inkscape:window-width="1366"
     inkscape:window-height="699"
     inkscape:window-x="0"
     inkscape:window-y="32"
     inkscape:window-maximized="1"
     inkscape:current-layer="g8" />
  <g
     inkscape:groupmode="layer"
     inkscape:label="Image"
     id="g8"
     transform="translate(-18.407316,-13.446063)">
    <path
       style="fill:#dc2626;fill-opacity:1;stroke-width:0.32"
       d="m 18.407316,64.291349 c 0,-4.266666 0.116826,-6.72 0.32,-6.72 0.176,0 0.32,-0.409277 0.32,-0.909501 v -0.909504 l 5.811298,-0.210496 c 3.196214,-0.115776 6.724214,-0.210499 7.84,-0.210499 h 2.028702 v 3.2 3.2 h 1.581113 c 0.869613,0 1.670112,0.144 1.778887,0.32 0.108774,0.176 0.477273,0.32 0.818886,0.32 0.587104,0 0.621114,-0.261792 0.621114,-4.781114 0,-2.84223 -0.12977,-4.861318 -0.32,-4.978886 -0.417162,-0.257821 -0.417162,-2.4 0,-2.4 0.176,0 0.32,-0.206297 0.32,-0.458435 0,-0.539824 0.475155,-0.695667 2.997193,-0.983024 1.47464,-0.168019 1.911536,-0.345197 2.037325,-0.826214 0.136617,-0.522429 0.460019,-0.612327 2.202803,-0.612327 1.829344,0 2.042678,0.06684 2.042678,0.64 0,0.499642 0.213335,0.64 0.972749,0.64 0.535011,0 1.537274,0.288 2.227251,0.64 0.875949,0.446877 1.886006,0.64 3.347251,0.64 1.646886,0 2.092749,0.102266 2.092749,0.48 0,0.264 0.204224,0.48 0.453827,0.48 0.249606,0 0.67095,0.08332 0.93632,0.185149 0.348432,0.133706 0.511296,-0.06634 0.58617,-0.72 0.0984,-0.859021 0.185222,-0.905149 1.703683,-0.905149 1.507574,0 1.605849,0.05083 1.701254,0.88 0.09132,0.793696 0.224704,0.88 1.36,0.88 h 1.258746 V 45.591625 40.0119 l 1.04,-0.100275 1.039999,-0.100275 0.16,-11.36 0.16,-11.36 6.88,-0.421841 c 3.784,-0.232013 8.066586,-0.327204 9.516854,-0.211536 l 2.636855,0.210305 0.08315,14.931536 0.08315,14.931535 0.88,0.101255 c 0.827404,0.0952 0.88,0.195613 0.88,1.68 v 1.578745 h 1.422467 1.422467 l 0.09753,1.52 c 0.08176,1.274157 0.201046,1.52 0.737528,1.52 0.63022,0 0.64245,-0.266665 0.8,-17.439999 0.1533,-16.709221 0.18682,-17.485529 0.8,-18.52655 1.00678,-1.709238 2.10739,-2.315899 5.33666,-2.941595 4.529305,-0.877588 4.423345,-0.900742 4.423345,0.966581 0,1.274767 0.11805,1.615904 0.61361,1.773189 1.06528,0.338108 2.262,1.465272 2.91531,2.745875 0.59775,1.171688 0.63108,1.930436 0.63108,14.369751 v 13.132748 h 1.28 c 1.20889,0 1.28,0.05334 1.28,0.96 0,0.746666 0.14222,0.96 0.64,0.96 0.501,0 0.64,0.213335 0.64,0.982256 0,0.8356 0.1075,0.966989 0.72,0.88 0.71702,-0.101833 0.72035,-0.129734 0.80649,-6.742256 l 0.0865,-6.639999 h 2.65235 c 1.83672,0 2.84336,-0.144477 3.2735,-0.469824 0.71422,-0.540205 2.16214,-0.629911 2.9927,-0.185412 0.3132,0.167623 1.88774,0.404282 3.49896,0.525914 l 2.92951,0.221149 v 1.554086 1.554087 h 3.98068 3.98068 l 0.0993,1.2 c 0.0907,1.095545 0.18984,1.208729 1.13931,1.300275 l 1.04,0.100275 v 6.859724 6.859725 h 0.8 c 0.49778,0 0.8,0.181334 0.8,0.48 0,0.264 0.12147,0.48 0.26993,0.48 0.14846,0 0.35783,-2.75337 0.46527,-6.118598 0.10743,-3.365229 0.26175,-6.185011 0.34292,-6.266186 0.0812,-0.08117 2.40483,-0.229971 5.16368,-0.330662 3.77714,-0.137859 5.05692,-0.289472 5.18139,-0.613818 0.11025,-0.287302 0.73996,-0.430736 1.89105,-0.430736 h 1.72576 v -3.039999 -3.04 l 1.68,-0.03786 c 1.29712,-0.02925 1.46723,-0.08393 0.7464,-0.24 -1.29961,-0.281388 -1.46643,-1.00214 -0.23195,-1.00214 0.53228,0 1.05678,-0.144 1.16555,-0.32 0.32541,-0.526515 6.0419,-0.377763 8.16484,0.212464 1.97719,0.549708 2.51812,1.067536 1.11516,1.067536 -0.44,0 -0.8,0.144 -0.8,0.32 0,0.176 0.576,0.32 1.28,0.32 h 1.28 v 5.439999 5.44 h 2.5441 c 2.08537,0 2.60291,0.100976 2.87027,0.56 0.22913,0.393386 0.32907,-1.455245 0.3359,-6.213334 0.005,-3.776077 0.13881,-6.820534 0.30142,-6.88 0.16043,-0.05867 0.39614,-3.805315 0.52379,-8.325884 l 0.2321,-8.219219 1.95621,-0.201129 c 1.07592,-0.110621 3.46821,-0.155972 5.31621,-0.100781 l 3.36,0.100348 0.24404,2.4 c 0.13422,1.32 0.27822,9.168 0.32,17.44 l 0.076,15.039999 2.48,0.09346 2.48,0.09346 V 44.007666 c 0,-9.070111 0.0803,-11.110867 0.45161,-11.482211 0.35004,-0.350042 1.23165,-0.423477 3.92,-0.326523 4.40118,0.158728 4.90839,0.267093 4.90839,1.048664 0,0.579888 0.27744,0.630413 3.92,0.713904 l 3.92,0.08985 0.0872,5.821948 0.0872,5.821952 1.35285,0.09805 1.35285,0.09805 0.0883,4.88 0.0883,4.88 h 1.43167 c 1.21833,0 1.43166,0.09537 1.43166,0.64 0,0.355555 0.21334,0.64 0.48,0.64 0.26938,0 0.48,-0.28567 0.48,-0.651021 0,-0.599248 0.13361,-0.633974 1.68,-0.436649 0.924,0.117904 1.752,0.278684 1.84,0.357292 0.088,0.07861 0.232,1.676845 0.32,3.551642 l 0.16,3.40872 0.72,-0.918147 c 0.69774,-0.889754 0.72,-1.139012 0.72,-8.059949 v -7.141804 l 1.2,-0.333258 c 1.38657,-0.385069 2.58929,-0.412621 5.6,-0.128278 l 2.16,0.204 v 9.553724 c 0,7.952752 0.0747,9.553728 0.44576,9.553728 0.24518,0 0.54092,-0.247965 0.65722,-0.551031 0.18223,-0.47488 0.25666,-0.485936 0.5386,-0.08 0.24751,0.356365 0.36665,0.373655 0.48945,0.07103 0.20985,-0.517178 1.27536,-0.517178 1.61008,0 0.15144,0.233974 0.3253,-0.529744 0.41889,-1.84 l 0.16,-2.24 1.2,-0.09932 c 1.09505,-0.09063 1.2,-0.182444 1.2,-1.049846 v -0.950534 l 3.92,0.08985 3.92,0.08985 0.10126,0.88 c 0.0885,0.769478 0.23925,0.88 1.2,0.88 h 1.09874 l 0.002,2.8 c 0.001,1.54 0.0941,3.772 0.20627,4.96 l 0.20404,2.159999 H 133.65358 18.407316 Z M 215.8473,60.474206 c 0,-3.504761 -0.0778,-4.182857 -0.48,-4.182857 -0.40471,0 -0.48,0.731427 -0.48,4.662857 0,4.144762 0.0533,4.609523 0.48,4.182858 0.37771,-0.377706 0.48,-1.37143 0.48,-4.662858 z m 2.81058,-0.385984 c -0.0636,-2.516364 -0.20979,-3.624287 -0.49058,-3.717465 -0.30709,-0.10191 -0.4,0.89337 -0.4,4.285126 0,4.060589 0.0397,4.361226 0.49058,3.717466 0.385,-0.549658 0.47109,-1.47192 0.4,-4.285127 z m -93.69057,-9.876873 c 0,-5.973334 -0.11403,-9.279999 -0.32,-9.279999 -0.20598,0 -0.32,3.306665 -0.32,9.279999 0,5.973334 0.11402,9.28 0.32,9.28 0.20597,0 0.32,-3.306666 0.32,-9.28 z m 69.91999,-4.804384 c 0,-10.733881 -0.0617,-12.315615 -0.48,-12.315615 -0.41698,0 -0.491,1.631033 -0.56378,12.424191 -0.079,11.717456 -0.0517,12.418016 0.48,12.315616 0.52673,-0.101437 0.56378,-0.91799 0.56378,-12.424192 z m 15.2,3.364384 v -0.8 h -6.24 -6.24 v 0.8 0.8 h 6.24 6.24 z m -23.04,-12.639999 v -0.96 h -3.36 -3.36 v 0.96 0.96 h 3.36 3.36 z m -89.279985,-15.36 c 0.62693,-0.200779 0.45386,-0.256205 -0.8,-0.256205 -0.88,0 -1.96,0.115293 -2.4,0.256205 -0.62694,0.200779 -0.45387,0.256205 0.8,0.256205 0.88,0 1.96,-0.115292 2.4,-0.256205 z m 0.8,-1.663801 c 0.20821,-0.203112 -0.4625,-0.233977 -1.92,-0.08836 -1.232,0.12309 -2.384,0.364272 -2.56,0.535958 -0.20822,0.203112 0.46249,0.233978 1.92,0.08836 1.232,-0.123091 2.384,-0.364272 2.56,-0.535958 z m 0,-1.282313 c 0.20575,-0.19834 -0.36545,-0.227671 -1.6,-0.08216 -2.69606,0.317779 -3.41147,0.848727 -0.8,0.593725 1.144,-0.111708 2.224,-0.341914 2.4,-0.511569 z m -0.16,-1.091001 c 0.44923,-0.09145 1.10923,-0.645164 1.50526,-1.262871 0.805475,-1.256302 0.862645,-1.233053 -1.60474,-0.652498 -1.71545,0.403632 -3.42052,1.498493 -3.42052,2.196392 0,0.265328 1.37569,0.155498 3.52,-0.281023 z"
       id="path194" />
  </g>
</svg>
